<svg width="37" height="30" viewBox="0 0 37 30" fill="none" xmlns="http://www.w3.org/2000/svg">
<g clip-path="url(#clip0_2102_785)">
<path d="M34.4507 2.57679C34.4507 3.9484 33.3296 5.06338 31.9402 5.06338C30.5507 5.06338 29.4297 3.95135 29.4297 2.57679C29.4297 1.20224 30.5507 0.09021 31.9402 0.09021C33.3296 0.09021 34.4507 1.20224 34.4507 2.57679Z" fill="#EE7103"/>
<path d="M6.13456 15.8356V28.6402H0.113525V0.09021H6.13456V10.9037H17.3654V0.09021H23.3864V28.6402H17.3654V15.8356H6.13456Z" fill="#EE7103"/>
<path d="M35.7958 7.54396H35.7928L34.6836 7.00122C34.5007 6.91568 34.3414 6.90388 34.2234 6.97762C34.2146 6.98647 34.2087 7.00122 34.1939 7.01007C34.4683 7.53806 34.4565 8.21649 34.4565 8.24009C34.4565 9.57039 33.3325 10.65 31.946 10.65C30.5595 10.65 29.4355 9.57039 29.4355 8.24009C29.4355 8.1516 29.4443 7.47317 29.7039 7.01007C29.6951 7.00122 29.6892 6.98647 29.6803 6.97762C29.5653 6.90683 29.4001 6.91568 29.2201 7.00122L28.108 7.54396C27.6832 7.75044 27.3203 8.32563 27.3203 8.79463V11.5319C27.3203 12.0009 27.6832 12.5761 28.105 12.7826L29.937 13.6734C29.8839 13.8474 29.8455 14.0185 29.8514 14.1542V23.7466L29.7187 23.8616C28.4856 25.0828 28.4856 27.065 29.7187 28.2861C30.9518 29.5073 32.949 29.5073 34.1851 28.2861C35.4182 27.065 35.4182 25.0798 34.1851 23.8557C34.1408 23.8115 34.0966 23.779 34.0582 23.7407V14.1483C34.0582 14.0126 34.0081 13.8474 33.9373 13.6882L35.7958 12.7826C36.2265 12.5761 36.5834 12.0009 36.5834 11.5319V8.79463C36.5834 8.32563 36.2235 7.75044 35.7987 7.54396H35.7958ZM33.1171 27.2301C32.4681 27.8732 31.4179 27.8732 30.7748 27.2301C30.1317 26.5871 30.1317 25.5518 30.7748 24.9087C31.0905 24.5961 31.5064 24.425 31.946 24.4279C32.3855 24.4279 32.8015 24.5961 33.1171 24.9087C33.7603 25.5459 33.7603 26.5871 33.1171 27.2301Z" fill="#EE7103"/>
</g>
<defs>
<clipPath id="clip0_2102_785">
<rect width="36.6575" height="29.4129" fill="white"/>
</clipPath>
</defs>
</svg>