<svg width="45" height="28" viewBox="0 0 45 28" fill="none" xmlns="http://www.w3.org/2000/svg">
<mask id="mask0_93_2" style="mask-type:luminance" maskUnits="userSpaceOnUse" x="0" y="0" width="45" height="28">
<path d="M44.2991 1.29671e-05L0.0161133 0.68572L0.392099 27.0439L44.6751 26.3581L44.2991 1.29671e-05Z" fill="white"/>
</mask>
<g mask="url(#mask0_93_2)">
<mask id="mask1_93_2" style="mask-type:luminance" maskUnits="userSpaceOnUse" x="0" y="0" width="45" height="28">
<path d="M44.3133 -0.000112721L0.0158691 0.712576L0.377368 27.0437L44.6748 26.331L44.3133 -0.000112721Z" fill="white"/>
</mask>
<g mask="url(#mask1_93_2)">
<path d="M35.9127 3.4083C19.6375 -4.54659 2.75414 7.4027 0.882651 12.01C-0.666744 16.6123 4.08012 25.6905 19.0298 26.3431C33.9794 26.9957 56.2568 13.3519 35.9127 3.4083Z" fill="#EE7103" stroke="#F0F0F0" stroke-width="1.01742"/>
<path d="M9.3749 16.5325C9.32148 16.5484 9.23638 16.5648 9.11958 16.5816C9.00765 16.5984 8.89561 16.6078 8.78347 16.6095C8.67133 16.6113 8.57131 16.6029 8.48328 16.5843C8.40019 16.5707 8.3291 16.5418 8.26993 16.4977C8.21085 16.4537 8.16611 16.3918 8.13571 16.3123C8.1054 16.2328 8.08933 16.128 8.08754 15.9979L8.07143 14.8276L6.6674 14.8501L6.69115 16.5756C6.63768 16.5915 6.55259 16.6078 6.43578 16.6247C6.32385 16.6415 6.21181 16.6508 6.09972 16.6526C5.98758 16.6544 5.88751 16.646 5.79948 16.6274C5.71643 16.6138 5.6453 16.5849 5.58618 16.5408C5.52705 16.4967 5.48231 16.4349 5.45195 16.3554C5.42164 16.2758 5.40553 16.171 5.40374 16.041L5.34922 12.0799C5.40271 12.069 5.48784 12.0552 5.60465 12.0383C5.72143 12.0164 5.83339 12.0046 5.94065 12.0028C6.05279 12.001 6.15039 12.0095 6.23355 12.0282C6.32152 12.0418 6.39507 12.0706 6.45419 12.1147C6.51332 12.1587 6.55806 12.2206 6.58841 12.3001C6.61872 12.3796 6.63484 12.4844 6.63663 12.6145L6.65315 13.8148L8.05718 13.7923L8.03302 12.0368C8.08651 12.026 8.17164 12.0121 8.28845 11.9952C8.40514 11.9733 8.51714 11.9615 8.62441 11.9598C8.73654 11.958 8.83419 11.9665 8.91731 11.9851C9.00527 11.9987 9.07882 12.0275 9.13795 12.0716C9.19707 12.1157 9.24181 12.1775 9.27217 12.2571C9.30252 12.3366 9.3186 12.4414 9.32039 12.5715L9.3749 16.5325ZM10.1366 11.8905C10.134 11.7004 10.1927 11.5395 10.3128 11.4074C10.4378 11.2753 10.6026 11.2077 10.8074 11.2044C11.0122 11.2011 11.1764 11.2635 11.3 11.3916C11.4285 11.5196 11.4941 11.6786 11.4967 11.8687C11.4994 12.0587 11.4382 12.2198 11.3133 12.3518C11.1932 12.4838 11.0307 12.5515 10.826 12.5548C10.6212 12.558 10.4546 12.4957 10.326 12.3677C10.2023 12.2396 10.1392 12.0806 10.1366 11.8905ZM11.5023 16.5209C11.4488 16.5318 11.3685 16.5455 11.2615 16.5623C11.1594 16.5839 11.0547 16.5956 10.9474 16.5973C10.8402 16.599 10.7426 16.5931 10.6546 16.5795C10.5715 16.5658 10.5004 16.537 10.4413 16.4929C10.3822 16.4488 10.3351 16.3896 10.2999 16.3151C10.2695 16.2355 10.2535 16.1332 10.2518 16.0082L10.2098 12.9549C10.2633 12.944 10.3411 12.9302 10.4433 12.9136C10.5502 12.8919 10.6573 12.8801 10.7646 12.8784C10.8718 12.8767 10.967 12.8827 11.0501 12.8964C11.138 12.91 11.2116 12.9388 11.2707 12.9828C11.3299 13.0269 11.3746 13.0888 11.4049 13.1683C11.4401 13.2428 11.4585 13.3425 11.4602 13.4676L11.5023 16.5209ZM12.2527 15.1207C12.2178 15.0662 12.1851 14.9942 12.1546 14.9046C12.1242 14.8151 12.1082 14.7203 12.1068 14.6203C12.1042 14.4352 12.1439 14.302 12.2257 14.2206C12.3074 14.1343 12.414 14.0901 12.5457 14.088L14.1106 14.0628C14.1406 14.1174 14.1708 14.1894 14.2013 14.279C14.2367 14.3685 14.2551 14.4632 14.2564 14.5632C14.259 14.7483 14.2194 14.884 14.1377 14.9703C14.056 15.0517 13.9492 15.0934 13.8176 15.0955L12.2527 15.1207ZM14.9211 12.6241C14.9181 12.4091 14.9767 12.238 15.0969 12.1111C15.2171 11.9841 15.3819 11.9189 15.5916 11.9155L18.0048 11.8768C18.0397 11.9313 18.0699 12.0033 18.0955 12.0929C18.126 12.1825 18.1419 12.2773 18.1433 12.3773C18.1459 12.5674 18.1064 12.7031 18.0246 12.7844C17.9477 12.8657 17.8434 12.9074 17.7118 12.9095L16.1688 12.9343L16.1784 13.6319L17.8238 13.6055C17.8586 13.66 17.8889 13.7321 17.9145 13.8217C17.945 13.9063 17.9609 13.9985 17.9622 14.0986C17.9649 14.2886 17.9277 14.4243 17.8508 14.5055C17.7739 14.5868 17.6696 14.6285 17.538 14.6306L16.1924 14.6522L16.2033 15.44L18.0827 15.4098C18.1175 15.4642 18.1478 15.5363 18.1734 15.6259C18.2039 15.7155 18.2198 15.8103 18.2212 15.9103C18.2238 16.1004 18.1843 16.2385 18.1026 16.3249C18.0257 16.4062 17.9214 16.4479 17.7898 16.45L15.6545 16.4843C15.4448 16.4876 15.2782 16.4278 15.1546 16.3047C15.031 16.1816 14.9677 16.0125 14.9647 15.7975L14.9211 12.6241ZM21.0701 14.0637C21.068 13.9087 21.0225 13.7968 20.9338 13.7282C20.8499 13.6545 20.7348 13.6188 20.5886 13.6212C20.4911 13.6228 20.3937 13.6368 20.2966 13.6634C20.2043 13.6899 20.1243 13.7287 20.0568 13.7798L20.0926 16.383C20.0441 16.3988 19.9663 16.4151 19.8592 16.4318C19.7571 16.4485 19.6499 16.4576 19.5378 16.4594C19.4305 16.4612 19.3329 16.4553 19.245 16.4417C19.1619 16.428 19.0908 16.3991 19.0317 16.355C18.9725 16.3109 18.9254 16.2517 18.8903 16.1772C18.8599 16.0977 18.8439 15.9954 18.8421 15.8703L18.8112 13.6197C18.8093 13.4847 18.8346 13.3742 18.887 13.2883C18.9444 13.2024 19.0213 13.1236 19.1178 13.052C19.282 12.9293 19.4878 12.8285 19.7354 12.7495C19.9879 12.6703 20.2677 12.6283 20.5748 12.6234C21.1257 12.6146 21.5516 12.7328 21.8524 12.9781C22.1532 13.2184 22.3066 13.5586 22.3127 13.9987L22.345 16.3469C22.2964 16.3626 22.2186 16.3789 22.1116 16.3957C22.0094 16.4123 21.9022 16.4215 21.7901 16.4233C21.6829 16.425 21.5853 16.4191 21.4973 16.4055C21.4142 16.3918 21.3431 16.363 21.284 16.3189C21.2249 16.2748 21.1777 16.2156 21.1426 16.1411C21.1122 16.0615 21.0962 15.9592 21.0945 15.8342L21.0701 14.0637ZM24.7943 12.5557C25.0722 12.5512 25.3238 12.5847 25.5491 12.6562C25.7792 12.7225 25.973 12.8119 26.1306 12.9245C26.2291 12.9929 26.3057 13.0692 26.3605 13.1534C26.4202 13.2375 26.451 13.347 26.4528 13.4821L26.4889 16.1078C26.4926 16.3729 26.447 16.6012 26.3521 16.7928C26.2572 16.9894 26.1254 17.1517 25.9565 17.2794C25.7925 17.4121 25.5964 17.5103 25.3681 17.574C25.1447 17.6376 24.9038 17.6715 24.6454 17.6756C24.2017 17.6828 23.8523 17.6258 23.5971 17.5049C23.3419 17.3889 23.2124 17.1934 23.2086 16.9183C23.2071 16.8033 23.2276 16.7004 23.2702 16.6096C23.3178 16.5238 23.3705 16.458 23.4285 16.412C23.5709 16.4898 23.7303 16.5548 23.9065 16.6069C24.0877 16.6591 24.2733 16.6836 24.4634 16.6806C24.7267 16.6763 24.9357 16.628 25.0905 16.5354C25.2453 16.4429 25.3212 16.2966 25.3185 16.0966L25.3168 15.9765C25.1182 16.0697 24.8751 16.1187 24.5874 16.1233C24.368 16.1268 24.158 16.0976 23.9572 16.0359C23.7612 15.969 23.5867 15.8667 23.4336 15.7291C23.2854 15.5864 23.1634 15.4033 23.0677 15.1797C22.9768 14.9561 22.9293 14.6892 22.925 14.3791C22.9208 14.074 22.9635 13.8082 23.053 13.5816C23.1474 13.355 23.2765 13.1679 23.4402 13.0202C23.6088 12.8674 23.8072 12.7541 24.0354 12.6804C24.2683 12.6016 24.5213 12.5601 24.7943 12.5557ZM25.2627 13.6362C25.2283 13.6168 25.1768 13.5976 25.1083 13.5787C25.0447 13.5597 24.9641 13.551 24.8666 13.5525C24.6277 13.5564 24.4483 13.6293 24.3283 13.7713C24.2132 13.9082 24.1573 14.1042 24.1608 14.3593C24.1648 14.6493 24.2263 14.8585 24.345 14.9866C24.4686 15.1097 24.6231 15.1697 24.8083 15.1668C25.0082 15.1635 25.166 15.1135 25.2817 15.0166L25.2627 13.6362ZM28.772 15.4408C28.8549 15.4395 28.9449 15.4305 29.0422 15.414C29.1443 15.3923 29.2195 15.3661 29.2679 15.3353L29.2596 14.7351L28.7337 14.7886C28.5974 14.8008 28.4856 14.8326 28.3986 14.8841C28.3115 14.9354 28.2686 15.0112 28.27 15.1112C28.2714 15.2113 28.3091 15.2932 28.3831 15.357C28.462 15.4158 28.5916 15.4437 28.772 15.4408ZM28.6729 12.4935C28.9362 12.4892 29.1754 12.5129 29.3906 12.5645C29.6108 12.616 29.7972 12.698 29.9499 12.8106C30.1075 12.9181 30.2289 13.0588 30.3141 13.2325C30.3994 13.4012 30.4436 13.6031 30.4468 13.8382L30.4699 15.5186C30.4717 15.6487 30.4367 15.7568 30.3647 15.843C30.2975 15.9241 30.2157 15.9954 30.1189 16.057C29.8048 16.2572 29.36 16.3618 28.7848 16.3711C28.5264 16.3752 28.292 16.354 28.0817 16.3073C27.8763 16.2606 27.6973 16.1885 27.5448 16.0908C27.3972 15.9931 27.2808 15.8675 27.1958 15.7137C27.1157 15.56 27.0742 15.3805 27.0714 15.1755C27.0666 14.8304 27.1629 14.5637 27.3603 14.3755C27.5576 14.1872 27.8656 14.0672 28.2842 14.0154L29.2408 13.895L29.2401 13.8425C29.2381 13.6975 29.1733 13.596 29.0456 13.538C28.9229 13.475 28.7445 13.4453 28.5105 13.449C28.3253 13.452 28.1451 13.4749 27.9702 13.5177C27.7952 13.5606 27.6374 13.6131 27.4969 13.6754C27.4329 13.6314 27.3784 13.5648 27.3332 13.4754C27.2881 13.3811 27.2648 13.2839 27.2634 13.1839C27.2616 13.0539 27.2894 12.9509 27.3469 12.8749C27.4092 12.7939 27.5033 12.7249 27.6294 12.6678C27.7699 12.6105 27.9352 12.5679 28.1249 12.5398C28.3196 12.5116 28.5022 12.4962 28.6729 12.4935ZM32.9212 12.4253C33.1991 12.4208 33.4507 12.4543 33.676 12.5257C33.9061 12.5921 34.0999 12.6815 34.2575 12.794C34.356 12.8625 34.4326 12.9388 34.4874 13.0229C34.5471 13.107 34.5778 13.2166 34.5797 13.3516L34.6158 15.9774C34.6195 16.2425 34.5738 16.4708 34.479 16.6624C34.3842 16.859 34.2523 17.0212 34.0834 17.149C33.9194 17.2817 33.7233 17.3799 33.495 17.4435C33.2715 17.5072 33.0307 17.5411 32.7722 17.5452C32.3286 17.5523 31.9791 17.4954 31.7239 17.3744C31.4688 17.2585 31.3393 17.063 31.3355 16.7879C31.334 16.6728 31.3545 16.57 31.3971 16.4792C31.4447 16.3934 31.4974 16.3275 31.5553 16.2816C31.6978 16.3593 31.8572 16.4243 32.0334 16.4765C32.2146 16.5287 32.4002 16.5532 32.5903 16.5501C32.8536 16.5459 33.0626 16.4975 33.2174 16.405C33.3721 16.3125 33.4481 16.1662 33.4454 15.9661L33.4437 15.8461C33.2451 15.9393 33.002 15.9882 32.7143 15.9929C32.4949 15.9964 32.2849 15.9672 32.0841 15.9054C31.8881 15.8385 31.7136 15.7363 31.5605 15.5987C31.4123 15.456 31.2903 15.2728 31.1946 15.0493C31.1037 14.8256 31.0561 14.5588 31.0519 14.2487C31.0477 13.9436 31.0904 13.6778 31.1799 13.4512C31.2743 13.2246 31.4034 13.0375 31.5671 12.8897C31.7357 12.737 31.9341 12.6237 32.1623 12.55C32.3952 12.4712 32.6482 12.4297 32.9212 12.4253ZM33.3896 13.5058C33.3552 13.4863 33.3037 13.4672 33.2352 13.4483C33.1716 13.4293 33.091 13.4205 32.9934 13.4221C32.7546 13.4259 32.5752 13.4989 32.4552 13.6409C32.34 13.7778 32.2842 13.9738 32.2877 14.2288C32.2917 14.5189 32.3531 14.728 32.4719 14.8562C32.5955 14.9793 32.7499 15.0393 32.9352 15.0363C33.1351 15.0331 33.2929 14.9831 33.4086 14.8862L33.3896 13.5058ZM37.27 16.2349C36.9824 16.2395 36.7136 16.2038 36.4639 16.1278C36.2189 16.0467 36.0027 15.9251 35.8152 15.763C35.6325 15.6009 35.4859 15.3956 35.3752 15.1473C35.2693 14.8988 35.2142 14.6071 35.2096 14.272C35.205 13.9419 35.2523 13.6585 35.3515 13.4218C35.4554 13.18 35.5917 12.9827 35.7602 12.83C35.9287 12.6722 36.1221 12.5565 36.3406 12.483C36.5589 12.4044 36.7827 12.3633 37.0117 12.3596C37.27 12.3555 37.5048 12.3918 37.7156 12.4684C37.9312 12.545 38.1153 12.6521 38.2684 12.7897C38.4266 12.9272 38.5482 13.0929 38.6336 13.2866C38.7241 13.4802 38.771 13.6921 38.7741 13.9221C38.7765 14.0922 38.7318 14.223 38.6404 14.3145C38.549 14.406 38.4207 14.4656 38.2552 14.4932L36.4529 14.7998C36.5088 14.964 36.6202 15.0873 36.7871 15.1696C36.954 15.247 37.1445 15.2839 37.3594 15.2805C37.5592 15.2773 37.7466 15.2493 37.9212 15.1965C38.1009 15.1385 38.2464 15.0737 38.3574 15.0018C38.436 15.0506 38.5029 15.1196 38.5579 15.2087C38.6126 15.2979 38.6406 15.3925 38.642 15.4925C38.6451 15.7176 38.5453 15.8868 38.3419 16.0001C38.1871 16.0876 38.0123 16.148 37.8176 16.1811C37.6233 16.2143 37.4405 16.2322 37.27 16.2349ZM37.0245 13.2899C36.9077 13.2917 36.8055 13.3134 36.7183 13.3548C36.636 13.3962 36.5685 13.4498 36.5157 13.5157C36.4629 13.5765 36.4225 13.6472 36.3943 13.7277C36.371 13.8031 36.3574 13.8809 36.3536 13.961L37.6012 13.7309C37.5852 13.631 37.53 13.5319 37.436 13.4334C37.3421 13.3348 37.2049 13.287 37.0245 13.2899Z" fill="#F0F0F0"/>
</g>
</g>
</svg>
