<svg width="141" height="45" viewBox="0 0 141 45" fill="none" xmlns="http://www.w3.org/2000/svg">
<g clip-path="url(#clip0_4168_157)">
<path d="M36.9148 19.5875C36.9148 21.5985 37.3648 22.0446 37.9118 22.2368V22.9059H33.051C32.7911 22.11 32.7291 21.8523 32.6321 20.8949C31.6041 21.9485 30.1532 23.3519 27.0964 23.3519C24.5205 23.3519 21.8826 21.9139 21.8826 18.4071C21.8826 15.0887 24.0046 13.4007 26.8714 12.9854L30.9252 12.3778C31.6351 12.2817 32.5002 11.9972 32.5002 11.0359C32.5002 9.15175 30.6963 9.05946 29.5403 9.05946C27.2865 9.05946 26.9024 10.4322 26.7744 11.4204H22.4296C22.9455 6.22173 26.5804 5.4873 30.0873 5.4873C32.5002 5.4873 36.9109 6.22173 36.9109 10.3976V19.5837L36.9148 19.5875ZM32.5079 14.6426C32.058 14.9926 31.317 15.2809 29.4511 15.5693C27.7752 15.8577 26.3942 16.2691 26.3942 18.1187C26.3942 19.6798 27.6162 20.1605 28.4851 20.1605C30.4791 20.1605 32.5079 18.8839 32.5079 16.8113V14.6426Z" fill="black"/>
<path d="M50.6279 11.1012C50.4339 10.0169 50.0499 8.86721 47.6021 8.86721C45.1543 8.86721 44.8362 9.79389 44.8362 10.5245C44.8362 13.2046 55.5507 11.2589 55.5507 17.5111C55.5507 22.456 50.7249 23.3481 48.0521 23.3481C44.1573 23.3481 39.9405 22.01 39.8125 17.4804H44.4444C44.4444 18.9146 45.3443 19.9682 48.1762 19.9682C50.4921 19.9682 51.0391 18.8531 51.0391 18.2148C51.0391 15.3771 40.4215 17.515 40.4215 11.1666C40.4215 8.67879 41.9965 5.4873 47.3422 5.4873C50.69 5.4873 54.6779 6.31786 55.0348 11.1012H50.624H50.6279Z" fill="black"/>
<path d="M74.3162 22.9018H69.8124V12.5968C69.8124 11.3509 69.7464 9.24763 66.8835 9.24763C64.8896 9.24763 63.3456 10.5857 63.3456 13.1735V22.9018H58.8418V0H63.3456V8.13253H63.4116C63.9896 6.72904 65.9215 5.48705 68.3693 5.48705C71.7171 5.48705 74.324 7.43271 74.324 11.1664V22.9057L74.3162 22.9018Z" fill="black"/>
<path d="M93.2067 17.9264C92.0158 22.0099 88.6059 23.348 85.677 23.348C80.8473 23.348 77.1504 21.0525 77.1504 14.0658C77.1504 12.024 77.8564 5.4834 85.3589 5.4834C88.7378 5.4834 93.4045 7.07914 93.4045 14.831V15.6308H81.6581C81.7861 16.9074 82.0421 19.7797 85.6809 19.7797C86.9378 19.7797 88.2218 19.1414 88.5787 17.9302H93.2106L93.2067 17.9264ZM88.7649 12.7277C88.5089 9.98224 86.7361 9.15553 85.2891 9.15553C83.1633 9.15553 82.0383 10.4936 81.7822 12.7277H88.7649Z" fill="black"/>
<path d="M112.033 22.9018H107.622V20.7639H107.556C106.462 22.6788 104.468 23.3479 102.602 23.3479C97.5165 23.3479 95.3945 18.8798 95.3945 14.2233C95.3945 8.35556 98.7423 5.48321 102.505 5.48321C105.403 5.48321 106.753 7.04435 107.459 8.12869H107.525V0H112.029V22.9018H112.033ZM103.731 19.6796C106.598 19.6796 107.723 17.3186 107.723 14.8001C107.723 12.0892 106.951 9.34761 103.859 9.34761C100.996 9.34761 100.03 11.8662 100.03 14.5463C100.03 16.5573 100.837 19.6834 103.731 19.6834" fill="black"/>
<path d="M140.486 22.9021H135.982V12.597C135.982 11.3512 135.916 9.24788 133.053 9.24788C131.059 9.24788 129.512 10.586 129.512 13.1738V22.9021H125.008V5.93334H129.322V8.42117H129.388C130 7.39835 131.284 5.4873 134.535 5.4873C137.786 5.4873 140.49 7.43296 140.49 11.1666V22.9059L140.486 22.9021Z" fill="#F47920"/>
<path d="M120.45 1.99564C120.45 3.09536 119.55 3.99128 118.437 3.99128C117.324 3.99128 116.424 3.09921 116.424 1.99564C116.424 0.892079 117.324 0 118.437 0C119.55 0 120.45 0.892079 120.45 1.99564Z" fill="#F47920"/>
<path d="M121.527 5.97954L120.639 5.54504C120.491 5.47582 120.363 5.46813 120.27 5.52581C120.262 5.5335 120.258 5.54504 120.247 5.55273C120.379 5.81804 120.456 6.11028 120.456 6.42558C120.456 6.87162 120.305 7.27536 120.057 7.60989C119.956 7.85983 119.742 8.0444 119.483 8.12514C119.18 8.30587 118.827 8.41738 118.443 8.41738C118.059 8.41738 117.71 8.30587 117.407 8.12514C117.271 8.08285 117.139 8.01748 117.039 7.91366C116.949 7.82522 116.88 7.7214 116.837 7.60989C116.589 7.27921 116.433 6.87162 116.433 6.42558C116.433 6.11028 116.515 5.81804 116.643 5.55273C116.635 5.54504 116.631 5.5335 116.623 5.52581C116.53 5.46813 116.398 5.47582 116.255 5.54504L115.363 5.97954C115.021 6.14488 114.73 6.6063 114.73 6.98313V9.17872C114.73 9.55555 115.021 10.017 115.359 10.1823L116.829 10.8975C116.786 11.0359 116.755 11.1744 116.759 11.282V18.9762C116.724 19.007 116.689 19.0377 116.655 19.0685C115.665 20.049 115.665 21.6371 116.655 22.6176C117.644 23.5981 119.246 23.5981 120.235 22.6176C121.224 21.6371 121.224 20.0452 120.235 19.0647C120.2 19.03 120.165 19.0031 120.134 18.9724V11.2782C120.134 11.1705 120.095 11.0359 120.037 10.909L121.527 10.1823C121.872 10.017 122.159 9.55555 122.159 9.17872V6.98313C122.159 6.6063 121.872 6.14488 121.531 5.97954M119.386 21.7716C118.866 22.2869 118.024 22.2869 117.508 21.7716C116.992 21.2564 116.992 20.4258 117.508 19.9106C117.76 19.6607 118.094 19.5222 118.447 19.5261C118.8 19.5261 119.133 19.6607 119.386 19.9106C119.901 20.422 119.901 21.2564 119.386 21.7716Z" fill="#F47920"/>
<path d="M4.82969 12.6314V22.9018H0V0H4.82969V8.67469H13.8374V0H18.667V22.9018H13.8374V12.6314H4.82969Z" fill="black"/>
<path d="M3.47971 34.1792C4.45729 34.1792 5.21763 34.5099 5.76072 35.1713C6.30382 35.8326 6.57149 36.7709 6.57149 37.9821C6.57149 39.1933 6.29994 40.1354 5.75297 40.8083C5.20599 41.4812 4.44953 41.8157 3.47971 41.8157C2.9948 41.8157 2.55257 41.7273 2.14912 41.5504C1.74568 41.3735 1.41206 41.1005 1.14051 40.7314H1.05905L0.82241 41.6811H0.0116425V31.1992H1.14051V33.7447C1.14051 34.3138 1.12111 34.8252 1.0862 35.2789H1.14051C1.66421 34.5407 2.44395 34.1754 3.47971 34.1754V34.1792ZM3.31678 35.1136C2.54481 35.1136 1.99007 35.3328 1.65257 35.7711C1.31508 36.2095 1.14439 36.9477 1.14439 37.9821C1.14439 39.0164 1.31896 39.7624 1.66809 40.2084C2.01723 40.6545 2.57584 40.8775 3.34782 40.8775C4.04221 40.8775 4.55815 40.6276 4.89565 40.1277C5.23314 39.6278 5.40383 38.9088 5.40383 37.9667C5.40383 37.0246 5.23314 36.2902 4.89565 35.8173C4.55815 35.3443 4.03057 35.1098 3.32066 35.1098L3.31678 35.1136Z" fill="black"/>
<path d="M7.03508 34.3027H8.24541L9.87859 38.5131C10.2355 39.4744 10.4566 40.1666 10.5458 40.5934H10.6001C10.6583 40.3627 10.7825 39.9705 10.9687 39.4168C11.1549 38.863 11.7717 37.1558 12.8152 34.2988H14.0255L10.8251 42.7044C10.507 43.5349 10.1385 44.1232 9.71566 44.4732C9.29282 44.8231 8.77299 44.9961 8.15619 44.9961C7.81093 44.9961 7.47344 44.9576 7.13594 44.8807V43.9848C7.38421 44.0386 7.66352 44.0656 7.96998 44.0656C8.74584 44.0656 9.29669 43.6349 9.62643 42.7736L10.0415 41.7239L7.03896 34.2988L7.03508 34.3027Z" fill="black"/>
<path d="M26.6733 36.6675C26.6733 38.294 26.2271 39.536 25.3388 40.3973C24.4466 41.2586 23.1664 41.6893 21.4944 41.6893H18.7402V31.8418H21.7854C23.3293 31.8418 24.5319 32.2648 25.3892 33.1145C26.2465 33.9643 26.6733 35.1486 26.6733 36.6713V36.6675ZM25.4513 36.7059C25.4513 35.4216 25.1254 34.4527 24.4776 33.8028C23.8259 33.153 22.8599 32.8262 21.5798 32.8262H19.9001V40.6934H21.3082C22.6854 40.6934 23.7211 40.3588 24.4155 39.6859C25.1099 39.013 25.4552 38.021 25.4552 36.7059H25.4513Z" fill="black"/>
<path d="M31.6041 41.8198C30.5024 41.8198 29.6334 41.4892 28.9972 40.8239C28.361 40.1587 28.0429 39.2359 28.0429 38.0554C28.0429 36.875 28.3377 35.9214 28.9312 35.2177C29.5209 34.5179 30.3161 34.168 31.3131 34.168C32.248 34.168 32.9851 34.4717 33.5282 35.0793C34.0713 35.6868 34.3428 36.4904 34.3428 37.4863V38.1939H29.2106C29.2338 39.059 29.4549 39.7204 29.8739 40.1664C30.2929 40.6163 30.8825 40.8393 31.6429 40.8393C32.4459 40.8393 33.2372 40.674 34.0209 40.3395V41.3354C33.6213 41.5045 33.245 41.6276 32.8881 41.7045C32.5312 41.7775 32.1045 41.816 31.6002 41.816L31.6041 41.8198ZM31.2976 35.1023C30.7002 35.1023 30.223 35.2946 29.8661 35.683C29.5093 36.0675 29.2998 36.602 29.2377 37.2864H33.1325C33.1325 36.5827 32.9734 36.0406 32.6553 35.6676C32.3372 35.2908 31.8834 35.1062 31.2976 35.1062V35.1023Z" fill="black"/>
<path d="M37.1013 41.6851H35.9725V31.2031H37.1013V41.6851Z" fill="black"/>
<path d="M45.6163 37.9862C45.6163 39.1898 45.3099 40.128 44.7008 40.8047C44.0879 41.4815 43.2422 41.8198 42.1638 41.8198C41.4966 41.8198 40.9069 41.666 40.391 41.3546C39.875 41.0431 39.4755 40.6009 39.1961 40.0203C38.9168 39.4397 38.7733 38.7629 38.7733 37.9862C38.7733 36.7827 39.0759 35.8445 39.6849 35.1754C40.2901 34.5025 41.1358 34.168 42.2142 34.168C43.2927 34.168 44.084 34.5102 44.697 35.1985C45.3099 35.8868 45.6163 36.8134 45.6163 37.9862ZM39.941 37.9862C39.941 38.9283 40.131 39.6473 40.5112 40.1434C40.8914 40.6394 41.45 40.8855 42.1909 40.8855C42.9319 40.8855 43.4905 40.6394 43.8745 40.1472C44.2586 39.655 44.4487 38.936 44.4487 37.9862C44.4487 37.0365 44.2586 36.3366 43.8745 35.8483C43.4905 35.36 42.928 35.1177 42.1793 35.1177C41.4306 35.1177 40.8836 35.3561 40.5073 35.8406C40.131 36.3213 39.9448 37.0365 39.9448 37.9901L39.941 37.9862Z" fill="black"/>
<path d="M47.1562 32.2988C47.1562 32.0412 47.2182 31.8566 47.3463 31.7374C47.4743 31.6182 47.6333 31.5605 47.8234 31.5605C48.0135 31.5605 48.1609 31.6221 48.2928 31.7413C48.4247 31.8643 48.4906 32.0489 48.4906 32.3027C48.4906 32.5564 48.4247 32.741 48.2928 32.8641C48.1609 32.9871 48.0057 33.0486 47.8234 33.0486C47.6333 33.0486 47.4743 32.9871 47.3463 32.8641C47.2182 32.741 47.1562 32.5526 47.1562 32.3027V32.2988ZM48.3781 41.681H47.2493V34.2983H48.3781V41.681Z" fill="black"/>
<path d="M52.9939 40.8974C53.1918 40.8974 53.3857 40.882 53.5719 40.8551C53.7581 40.8244 53.9055 40.7975 54.0142 40.7628V41.6203C53.8939 41.678 53.7116 41.728 53.475 41.7664C53.2383 41.8049 53.0211 41.8241 52.831 41.8241C51.3918 41.8241 50.6702 41.0705 50.6702 39.567V35.1758H49.6034V34.6375L50.6702 34.1722L51.1474 32.5957H51.7991V34.3068H53.9599V35.1758H51.7991V39.5209C51.7991 39.9669 51.9038 40.3053 52.1172 40.5437C52.3306 40.7821 52.6215 40.9013 52.9939 40.9013V40.8974Z" fill="black"/>
<path d="M58.1775 40.8974C58.3754 40.8974 58.5693 40.882 58.7555 40.8551C58.9417 40.8244 59.0891 40.7975 59.1978 40.7628V41.6203C59.0775 41.678 58.8952 41.728 58.6585 41.7664C58.4219 41.8049 58.2047 41.8241 58.0146 41.8241C56.5754 41.8241 55.8538 41.0705 55.8538 39.567V35.1758H54.787V34.6375L55.8538 34.1722L56.331 32.5957H56.9827V34.3068H59.1435V35.1758H56.9827V39.5209C56.9827 39.9669 57.0874 40.3053 57.3008 40.5437C57.5142 40.7821 57.8051 40.9013 58.1775 40.9013V40.8974Z" fill="black"/>
<path d="M63.4439 41.8198C62.3422 41.8198 61.4733 41.4892 60.8371 40.8239C60.2009 40.1587 59.8828 39.2359 59.8828 38.0554C59.8828 36.875 60.1776 35.9214 60.7711 35.2177C61.3608 34.5179 62.156 34.168 63.153 34.168C64.0879 34.168 64.8249 34.4717 65.368 35.0793C65.9111 35.6868 66.1827 36.4904 66.1827 37.4863V38.1939H61.0504C61.0737 39.059 61.2948 39.7204 61.7138 40.1664C62.1327 40.6163 62.7224 40.8393 63.4827 40.8393C64.2857 40.8393 65.0771 40.674 65.8607 40.3395V41.3354C65.4611 41.5045 65.0849 41.6276 64.728 41.7045C64.3711 41.7775 63.9444 41.816 63.44 41.816L63.4439 41.8198ZM63.1375 35.1023C62.5401 35.1023 62.0629 35.2946 61.706 35.683C61.3491 36.0675 61.1396 36.602 61.0776 37.2864H64.9724C64.9724 36.5827 64.8133 36.0406 64.4952 35.6676C64.1771 35.2908 63.7271 35.1062 63.1375 35.1062V35.1023Z" fill="black"/>
</g>
<defs>
<clipPath id="clip0_4168_157">
<rect width="140.488" height="45" fill="white"/>
</clipPath>
</defs>
</svg>
